<svg aria-hidden="true" style="position: absolute; width: 0; height: 0; overflow: hidden;" version="1.1"
  xmlns="http://www.w3.org/2000/svg" xmlns:xlink="http://www.w3.org/1999/xlink">
  <defs>
    <symbol id="icon-mobile-menu-open" fill="#85c441" viewBox="0 0 32 32">
      <path
        d="M26.733 14.667H5.266c-.7 0-1.267.567-1.267 1.267v.133c0 .7.567 1.267 1.267 1.267h21.467c.7 0 1.267-.567 1.267-1.267v-.133c0-.7-.567-1.267-1.267-1.267zM26.733 21.333H5.266c-.7 0-1.267.567-1.267 1.267v.133c0 .7.567 1.267 1.267 1.267h21.467c.7 0 1.267-.567 1.267-1.267V22.6c0-.7-.567-1.267-1.267-1.267zM26.733 8H5.266c-.7 0-1.267.567-1.267 1.267V9.4c0 .7.567 1.267 1.267 1.267h21.467c.7 0 1.267-.567 1.267-1.267v-.133C28 8.567 27.433 8 26.733 8z" />
    </symbol>
  </defs>
</svg>